<?xml version="1.0" standalone="no"?><!DOCTYPE svg PUBLIC "-//W3C//DTD SVG 1.1//EN" "http://www.w3.org/Graphics/SVG/1.1/DTD/svg11.dtd"><svg t="1566539946581" class="icon" viewBox="0 0 1024 1024" version="1.1" xmlns="http://www.w3.org/2000/svg" p-id="3379" xmlns:xlink="http://www.w3.org/1999/xlink" width="200" height="200"><defs><style type="text/css"></style></defs><path d="M664.455529 375.747765l-53.308235 53.308235a30.087529 30.087529 0 0 0 0.060235 42.526118 29.997176 29.997176 0 0 0 42.556236 0.060235l53.308235-53.308235 53.278118 53.308235a30.087529 30.087529 0 0 0 42.526117-0.060235 29.997176 29.997176 0 0 0 0.060236-42.526118l-53.308236-53.308235 53.308236-53.308236a30.087529 30.087529 0 0 0-0.060236-42.526117 29.997176 29.997176 0 0 0-42.526117-0.030118l-53.308236 53.308235-53.308235-53.308235a30.087529 30.087529 0 0 0-42.526118 0.030118 29.997176 29.997176 0 0 0-0.030117 42.556235l53.308235 53.308235z m-391.529411 0l-53.308236 53.308235a30.087529 30.087529 0 0 0 0.060236 42.526118 29.997176 29.997176 0 0 0 42.556235 0.060235l53.308235-53.308235 53.278118 53.308235a30.087529 30.087529 0 0 0 42.526118-0.060235 29.997176 29.997176 0 0 0 0.060235-42.526118l-53.308235-53.308235 53.308235-53.308236a30.087529 30.087529 0 0 0-0.060235-42.526117 29.997176 29.997176 0 0 0-42.526118-0.030118l-53.308235 53.308235-53.308236-53.308235a30.087529 30.087529 0 0 0-42.526117 0.030118 29.997176 29.997176 0 0 0-0.030118 42.556235l53.308235 53.308235zM512 1024C229.225412 1024 0 794.774588 0 512S229.225412 0 512 0s512 229.225412 512 512-229.225412 512-512 512z m209.468235-269.522824A285.364706 285.364706 0 0 0 511.367529 662.588235 285.364706 285.364706 0 0 0 301.176471 754.567529l420.291764-0.090353z" p-id="3380" fill="#ce0a0a"></path></svg>